<?xml version="1.0" encoding="utf-8"?>
<!-- Generator: Adobe Illustrator 25.0.0, SVG Export Plug-In . SVG Version: 6.00 Build 0)  -->
<svg version="1.1" id="Layer_1" xmlns="http://www.w3.org/2000/svg" xmlns:xlink="http://www.w3.org/1999/xlink" x="0px" y="0px"
	 viewBox="0 0 200 200" style="enable-background:new 0 0 200 200;" xml:space="preserve">
<style type="text/css">
	.st0{fill:#325159;}
	.st1{fill:#E9503E;}
	.st2{fill:#C6B333;}
</style>
<g>
	<circle class="st0" cx="100" cy="99" r="82"/>
</g>
<g>
	<path class="st1" d="M94,77.3l6-11.7l6,11.7c0.6,1.2,1.8,1.9,3.1,1.9h16.3L100,29.7L74.6,79.2h16.3C92.2,79.2,93.4,78.5,94,77.3z"
		/>
	<path class="st1" d="M70.4,123.2l10-19.4H64.1c-1.3,0-2.5,0.7-3.1,1.9l-12.7,24.7c-0.7,1.3-0.5,2.9,0.5,4l10.1,11.1l28.8-11.6
		v-17.7L70.4,123.2z"/>
	<path class="st1" d="M151.7,130.4L139,105.7c-0.6-1.2-1.8-1.9-3.1-1.9h-16.3l10,19.4l0,0l-17.3-7v17.7l28.8,11.6l10.1-11.1
		C152.2,133.3,152.4,131.7,151.7,130.4z"/>
	<path class="st2" d="M146.9,85.2c-0.6-1.2-1.8-1.9-3.1-1.9h-32.5c-4.8,0-8.8,2.9-10.5,7.1c-0.2,0.7-0.4,1.4-0.4,2.1
		c0,0.6,0.1,1.1,0.2,1.7c0.7,2.5,3.1,4.4,5.8,4.4v0.8c-3.4,0-6.1,2.7-6.1,6.1h-0.8c0-3.4-2.7-6.1-6.1-6.1v-0.8
		c2.8,0,5.2-1.9,5.9-4.5c0-0.2,0.1-0.4,0.1-0.6c0,0,0,0,0,0c0.1-0.3,0.1-0.6,0.1-1c0-0.7-0.1-1.4-0.4-2.1c-1.6-4.2-5.7-7.2-10.5-7.2
		H56.2c-1.3,0-2.5,0.7-3.1,1.9l-7.4,14.5h38.5c4.2,0,7.7,3.4,7.7,7.7v44.1c0,0.6,0.1,1.1,0.4,1.6l7.8,15.2l7.8-15.2
		c0.3-0.5,0.4-1.1,0.4-1.6v-44.2c0-4.2,3.4-7.7,7.7-7.7h38.5L146.9,85.2z"/>
</g>
</svg>
