<?xml version="1.0" encoding="utf-8"?>
<!-- Generator: Adobe Illustrator 25.0.0, SVG Export Plug-In . SVG Version: 6.00 Build 0)  -->
<svg version="1.1" id="Layer_1" xmlns="http://www.w3.org/2000/svg" xmlns:xlink="http://www.w3.org/1999/xlink" x="0px" y="0px"
	 viewBox="0 0 373.1 103" style="enable-background:new 0 0 373.1 103;" xml:space="preserve">
<style type="text/css">
	.st0{fill:#FFFFFF;}
</style>
<g>
	<g>
		<path class="st0" d="M42.1,35.5l4.5-8.7l4.5,8.7c0.5,0.9,1.4,1.4,2.3,1.4h12.1L46.5,0L27.6,36.9h12.1
			C40.7,36.9,41.6,36.3,42.1,35.5z"/>
		<path class="st0" d="M24.5,69.7l7.4-14.5H19.8c-1,0-1.9,0.6-2.3,1.4L8,75.1c-0.5,1-0.3,2.2,0.4,3l7.6,8.3l21.4-8.6V64.5L24.5,69.7
			z"/>
		<path class="st0" d="M85.1,75.1l-9.5-18.4c-0.5-0.9-1.4-1.4-2.3-1.4H61.2l7.4,14.5l0,0l-12.9-5.2v13.2l21.4,8.6l7.6-8.3
			C85.4,77.2,85.6,76,85.1,75.1z"/>
		<path class="st0" d="M81.5,41.4c-0.5-0.9-1.4-1.4-2.3-1.4H55c-3.5,0-6.6,2.2-7.8,5.3c-0.2,0.5-0.3,1-0.3,1.6
			c0,0.4,0.1,0.8,0.2,1.2c0.6,1.9,2.3,3.3,4.4,3.3v0.6c-2.5,0-4.6,2-4.6,4.6h-0.6c0-2.5-2-4.6-4.6-4.6v-0.6c2.1,0,3.8-1.4,4.4-3.4
			c0-0.1,0.1-0.3,0.1-0.4c0,0,0,0,0,0c0-0.2,0.1-0.5,0.1-0.7c0-0.5-0.1-1.1-0.3-1.6c-1.2-3.1-4.3-5.4-7.8-5.4H13.9
			c-1,0-1.9,0.6-2.3,1.4L6.1,52.2h28.7c3.2,0,5.7,2.6,5.7,5.7v32.9c0,0.4,0.1,0.8,0.3,1.2l5.8,11.4L52.4,92c0.2-0.4,0.3-0.8,0.3-1.2
			V57.9c0-3.2,2.6-5.7,5.7-5.7H87L81.5,41.4z"/>
	</g>
	<g>
		<g>
			<g>
				<path class="st0" d="M122.9,51.6h-12l-1.9,5.7h-8.2l11.6-32.2h9.1l11.6,32.2h-8.3L122.9,51.6z M120.8,45.6l-4-11.8l-3.9,11.8
					H120.8z"/>
				<path class="st0" d="M146.8,32.7c1.4-0.8,2.9-1.2,4.6-1.2v8.3h-2.2c-2,0-3.4,0.4-4.4,1.3c-1,0.8-1.5,2.3-1.5,4.4v11.9h-7.8V31.7
					h7.8V36C144.2,34.6,145.4,33.5,146.8,32.7z"/>
				<path class="st0" d="M179.2,31.7v25.6h-7.8v-3.5c-0.8,1.1-1.9,2-3.2,2.7c-1.4,0.7-2.9,1-4.5,1c-2,0-3.7-0.4-5.2-1.3
					c-1.5-0.9-2.7-2.1-3.5-3.8c-0.8-1.7-1.2-3.6-1.2-5.8V31.7h7.8v13.9c0,1.7,0.4,3,1.3,4s2.1,1.4,3.6,1.4c1.5,0,2.7-0.5,3.6-1.4
					c0.9-0.9,1.3-2.3,1.3-4V31.7H179.2z"/>
				<path class="st0" d="M206.5,34.4c1.8,1.9,2.7,4.6,2.7,8v14.9h-7.8V43.4c0-1.7-0.4-3-1.3-4c-0.9-0.9-2.1-1.4-3.6-1.4
					c-1.5,0-2.7,0.5-3.6,1.4c-0.9,0.9-1.3,2.3-1.3,4v13.9h-7.8V31.7h7.8v3.4c0.8-1.1,1.9-2,3.2-2.7c1.3-0.7,2.9-1,4.5-1
					C202.3,31.4,204.7,32.4,206.5,34.4z"/>
				<path class="st0" d="M233.8,25.3v3.4h-8.7v28.6h-4.2V28.7h-8.8v-3.4H233.8z"/>
				<path class="st0" d="M260.6,46.3h-20.1c0.2,2.5,1,4.4,2.5,5.8c1.5,1.4,3.4,2.1,5.6,2.1c1.8,0,3.3-0.4,4.5-1.3
					c1.2-0.8,2.1-2,2.5-3.4h4.5c-0.7,2.4-2,4.4-4,5.9c-2,1.5-4.5,2.3-7.5,2.3c-2.4,0-4.5-0.5-6.4-1.6c-1.9-1.1-3.4-2.6-4.4-4.6
					c-1.1-2-1.6-4.3-1.6-6.9s0.5-4.9,1.6-6.8c1-2,2.5-3.5,4.4-4.5c1.9-1.1,4-1.6,6.5-1.6c2.4,0,4.5,0.5,6.3,1.6
					c1.8,1,3.2,2.5,4.2,4.3c1,1.8,1.5,3.9,1.5,6.2C260.8,44.6,260.7,45.4,260.6,46.3z M255.4,38.8c-0.7-1.1-1.7-2-2.9-2.6
					c-1.2-0.6-2.5-0.9-4-0.9c-2.1,0-3.9,0.7-5.4,2c-1.5,1.3-2.3,3.2-2.5,5.6h15.9C256.4,41.3,256.1,39.9,255.4,38.8z"/>
				<path class="st0" d="M278.2,57.3l-6-9.4l-5.7,9.4h-4.4l8.1-12.5l-8.1-12.7h4.7l6,9.3l5.7-9.3h4.4l-8.1,12.4l8.1,12.7H278.2z"/>
				<path class="st0" d="M291,35.6v14.8c0,1.2,0.3,2.1,0.8,2.6c0.5,0.5,1.4,0.8,2.7,0.8h3.1v3.5h-3.8c-2.3,0-4.1-0.5-5.2-1.6
					c-1.2-1.1-1.7-2.8-1.7-5.3V35.6h-3.3v-3.4h3.3v-6.3h4.2v6.3h6.6v3.4H291z"/>
				<path class="st0" d="M301.6,27.3c-0.6-0.5-0.8-1.2-0.8-2c0-0.8,0.3-1.5,0.8-2c0.6-0.6,1.2-0.8,2-0.8c0.8,0,1.4,0.3,1.9,0.8
					c0.5,0.5,0.8,1.2,0.8,2c0,0.8-0.3,1.5-0.8,2c-0.5,0.6-1.2,0.8-1.9,0.8C302.8,28.1,302.2,27.8,301.6,27.3z M305.6,32.2v25.1h-4.2
					V32.2H305.6z"/>
				<path class="st0" d="M315.8,23.4v33.9h-4.2V23.4H315.8z"/>
				<path class="st0" d="M344.5,46.3h-20.1c0.2,2.5,1,4.4,2.5,5.8c1.5,1.4,3.4,2.1,5.6,2.1c1.8,0,3.3-0.4,4.5-1.3
					c1.2-0.8,2.1-2,2.5-3.4h4.5c-0.7,2.4-2,4.4-4,5.9c-2,1.5-4.5,2.3-7.5,2.3c-2.4,0-4.5-0.5-6.4-1.6c-1.9-1.1-3.4-2.6-4.4-4.6
					c-1.1-2-1.6-4.3-1.6-6.9s0.5-4.9,1.6-6.8c1-2,2.5-3.5,4.4-4.5c1.9-1.1,4-1.6,6.5-1.6c2.4,0,4.5,0.5,6.3,1.6
					c1.8,1,3.2,2.5,4.2,4.3c1,1.8,1.5,3.9,1.5,6.2C344.7,44.6,344.6,45.4,344.5,46.3z M339.3,38.8c-0.7-1.1-1.7-2-2.9-2.6
					c-1.2-0.6-2.5-0.9-4-0.9c-2.1,0-3.9,0.7-5.4,2c-1.5,1.3-2.3,3.2-2.5,5.6h15.9C340.4,41.3,340,39.9,339.3,38.8z"/>
				<path class="st0" d="M352.7,56.7c-1.5-0.7-2.7-1.6-3.6-2.8c-0.9-1.2-1.4-2.5-1.5-4.1h4.3c0.1,1.3,0.7,2.3,1.8,3.1
					c1.1,0.8,2.4,1.2,4.2,1.2c1.6,0,2.8-0.4,3.8-1.1c0.9-0.7,1.4-1.6,1.4-2.7c0-1.1-0.5-1.9-1.5-2.5c-1-0.5-2.5-1.1-4.5-1.6
					c-1.9-0.5-3.4-1-4.6-1.5c-1.2-0.5-2.2-1.3-3-2.2c-0.8-1-1.3-2.3-1.3-3.9c0-1.3,0.4-2.5,1.1-3.5c0.8-1.1,1.8-1.9,3.3-2.5
					c1.4-0.6,3-0.9,4.8-0.9c2.8,0,5,0.7,6.7,2.1c1.7,1.4,2.6,3.3,2.8,5.8h-4.2c-0.1-1.3-0.6-2.4-1.6-3.2c-1-0.8-2.3-1.2-3.9-1.2
					c-1.5,0-2.7,0.3-3.6,1c-0.9,0.6-1.3,1.5-1.3,2.5c0,0.8,0.3,1.5,0.8,2c0.5,0.5,1.2,1,2,1.3c0.8,0.3,1.9,0.7,3.4,1.1
					c1.8,0.5,3.3,1,4.4,1.4c1.1,0.5,2.1,1.2,2.9,2.1c0.8,0.9,1.2,2.2,1.3,3.7c0,1.4-0.4,2.6-1.1,3.7c-0.8,1.1-1.8,2-3.2,2.6
					c-1.4,0.6-3,0.9-4.8,0.9C356,57.7,354.3,57.4,352.7,56.7z"/>
			</g>
		</g>
		<g>
			<path class="st0" d="M108.8,77.4v1h-7.4V68h7.1v1h-6v3.7h5.4v0.9h-5.4v3.9H108.8z"/>
			<path class="st0" d="M115.9,78.4l-2.5-3.3l-2.5,3.3h-1.2l3.1-4l-2.9-3.8h1.2l2.4,3.1l2.4-3.1h1.2l-2.9,3.8l3.1,4H115.9z"/>
			<path class="st0" d="M126.8,74.5c0,2.4-1.7,4-3.9,4c-1.2,0-2.3-0.5-3-1.5v4.4h-1.1V70.5h1v1.5c0.6-1,1.7-1.6,3-1.6
				C125.1,70.5,126.8,72.1,126.8,74.5z M125.7,74.5c0-1.8-1.3-3.1-2.9-3.1c-1.7,0-2.9,1.2-2.9,3.1c0,1.8,1.3,3.1,2.9,3.1
				C124.5,77.5,125.7,76.3,125.7,74.5z"/>
			<path class="st0" d="M128.1,74.5c0-2.3,1.7-4,4-4c2.3,0,4,1.7,4,4c0,2.3-1.7,4-4,4C129.8,78.5,128.1,76.8,128.1,74.5z M135,74.5
				c0-1.8-1.2-3.1-2.9-3.1s-2.9,1.2-2.9,3.1c0,1.8,1.2,3.1,2.9,3.1S135,76.3,135,74.5z"/>
			<path class="st0" d="M142.2,70.5v1c-0.1,0-0.2,0-0.3,0c-1.6,0-2.6,1-2.6,2.9v4h-1.1v-7.8h1v1.5C139.8,71,140.8,70.5,142.2,70.5z"
				/>
			<path class="st0" d="M148.6,77.9c-0.4,0.4-1,0.6-1.7,0.6c-1.5,0-2.3-0.8-2.3-2.3v-4.7h-1.4v-0.9h1.4v-1.7h1.1v1.7h2.4v0.9h-2.4
				v4.7c0,0.9,0.5,1.4,1.4,1.4c0.4,0,0.9-0.1,1.2-0.4L148.6,77.9z"/>
			<path class="st0" d="M153.6,77.1l0.4-0.9c0.7,0.7,2.1,1.3,3.4,1.3c2,0,2.8-0.8,2.8-1.8c0-2.9-6.4-1.1-6.4-5
				c0-1.5,1.2-2.9,3.8-2.9c1.2,0,2.4,0.3,3.2,0.9l-0.4,0.9c-0.9-0.6-1.9-0.9-2.9-0.9c-1.9,0-2.8,0.8-2.8,1.9c0,2.9,6.4,1.1,6.4,4.9
				c0,1.5-1.2,2.8-3.9,2.8C155.9,78.5,154.4,77.9,153.6,77.1z"/>
			<path class="st0" d="M170.6,70.5v7.8h-1V77c-0.6,1-1.6,1.5-2.8,1.5c-2,0-3.3-1.1-3.3-3.4v-4.5h1.1V75c0,1.7,0.9,2.5,2.4,2.5
				c1.6,0,2.7-1.1,2.7-2.8v-4.1H170.6z"/>
			<path class="st0" d="M177.5,70.5v1c-0.1,0-0.2,0-0.3,0c-1.6,0-2.6,1-2.6,2.9v4h-1.1v-7.8h1v1.5C175,71,176,70.5,177.5,70.5z"/>
			<path class="st0" d="M187.3,74.5c0,2.4-1.7,4-3.9,4c-1.2,0-2.3-0.5-3-1.5v4.4h-1.1V70.5h1v1.5c0.6-1,1.7-1.6,3-1.6
				C185.7,70.5,187.3,72.1,187.3,74.5z M186.3,74.5c0-1.8-1.3-3.1-2.9-3.1c-1.7,0-2.9,1.2-2.9,3.1c0,1.8,1.3,3.1,2.9,3.1
				C185,77.5,186.3,76.3,186.3,74.5z"/>
			<path class="st0" d="M189.5,67.3h1.1v11.1h-1.1V67.3z"/>
			<path class="st0" d="M200.5,70.5v7.8h-1V77c-0.6,1-1.6,1.5-2.8,1.5c-2,0-3.3-1.1-3.3-3.4v-4.5h1.1V75c0,1.7,0.9,2.5,2.4,2.5
				c1.6,0,2.7-1.1,2.7-2.8v-4.1H200.5z"/>
			<path class="st0" d="M202.4,77.5l0.5-0.8c0.6,0.5,1.7,0.9,2.8,0.9c1.5,0,2.1-0.5,2.1-1.3c0-2-5.1-0.4-5.1-3.5
				c0-1.3,1.1-2.2,3.1-2.2c1,0,2.1,0.3,2.8,0.7l-0.5,0.8c-0.7-0.5-1.5-0.7-2.3-0.7c-1.4,0-2,0.5-2,1.3c0,2.1,5.1,0.5,5.1,3.5
				c0,1.4-1.2,2.2-3.2,2.2C204.3,78.5,203,78,202.4,77.5z"/>
			<path class="st0" d="M223.6,75.6c0,1.8-1.3,2.8-3.9,2.8h-4.8V68h4.5c2.3,0,3.7,1,3.7,2.7c0,1.2-0.6,2-1.6,2.4
				C222.8,73.3,223.6,74.2,223.6,75.6z M216,68.9v3.8h3.3c1.7,0,2.6-0.6,2.6-1.9c0-1.2-1-1.9-2.6-1.9H216z M222.5,75.5
				c0-1.4-1-2-2.8-2H216v3.9h3.7C221.5,77.5,222.5,76.9,222.5,75.5z"/>
			<path class="st0" d="M229.8,70.5v1c-0.1,0-0.2,0-0.3,0c-1.6,0-2.6,1-2.6,2.9v4h-1.1v-7.8h1v1.5C227.4,71,228.4,70.5,229.8,70.5z"
				/>
			<path class="st0" d="M237.6,73.5v4.9h-1v-1.2c-0.5,0.8-1.4,1.3-2.7,1.3c-1.8,0-2.9-0.9-2.9-2.3c0-1.2,0.8-2.2,3-2.2h2.5v-0.5
				c0-1.3-0.8-2.1-2.2-2.1c-1,0-2,0.4-2.6,0.9l-0.5-0.8c0.8-0.7,2-1.1,3.2-1.1C236.5,70.5,237.6,71.5,237.6,73.5z M236.6,76v-1.3
				h-2.5c-1.5,0-2,0.6-2,1.4c0,0.9,0.7,1.5,2,1.5C235.3,77.6,236.2,77.1,236.6,76z"/>
			<path class="st0" d="M247.7,73.8v4.5h-1.1v-4.4c0-1.7-0.9-2.5-2.4-2.5c-1.7,0-2.7,1-2.7,2.8v4.1h-1.1v-7.8h1V72
				c0.6-1,1.6-1.5,3-1.5C246.4,70.5,247.7,71.6,247.7,73.8z"/>
			<path class="st0" d="M257.7,67.3v11.1h-1v-1.5c-0.6,1.1-1.7,1.6-3,1.6c-2.2,0-3.9-1.6-3.9-4c0-2.4,1.7-4,3.9-4
				c1.3,0,2.3,0.5,3,1.5v-4.7H257.7z M256.7,74.5c0-1.8-1.3-3.1-2.9-3.1c-1.7,0-2.9,1.2-2.9,3.1c0,1.8,1.2,3.1,2.9,3.1
				C255.4,77.5,256.7,76.3,256.7,74.5z"/>
			<path class="st0" d="M267.5,74.8h-6.6c0.1,1.6,1.4,2.7,3.1,2.7c1,0,1.8-0.3,2.4-1l0.6,0.7c-0.7,0.8-1.8,1.3-3,1.3
				c-2.4,0-4.1-1.7-4.1-4c0-2.3,1.6-4,3.8-4s3.8,1.6,3.8,4C267.5,74.6,267.5,74.7,267.5,74.8z M260.9,74h5.6
				c-0.1-1.5-1.2-2.6-2.8-2.6C262.2,71.4,261.1,72.5,260.9,74z"/>
			<path class="st0" d="M276.8,67.3v11.1h-1v-1.5c-0.6,1.1-1.7,1.6-3,1.6c-2.2,0-3.9-1.6-3.9-4c0-2.4,1.7-4,3.9-4
				c1.3,0,2.3,0.5,3,1.5v-4.7H276.8z M275.8,74.5c0-1.8-1.3-3.1-2.9-3.1c-1.7,0-2.9,1.2-2.9,3.1c0,1.8,1.2,3.1,2.9,3.1
				C274.5,77.5,275.8,76.3,275.8,74.5z"/>
			<path class="st0" d="M292.6,68v10.4h-1.1v-4.8H285v4.8h-1.1V68h1.1v4.6h6.5V68H292.6z"/>
			<path class="st0" d="M302.8,70.5v7.8h-1V77c-0.6,1-1.6,1.5-2.8,1.5c-2,0-3.3-1.1-3.3-3.4v-4.5h1.1V75c0,1.7,0.9,2.5,2.4,2.5
				c1.6,0,2.7-1.1,2.7-2.8v-4.1H302.8z"/>
			<path class="st0" d="M313.7,74.5c0,2.4-1.7,4-3.9,4c-1.3,0-2.4-0.6-3-1.6v1.5h-1V67.3h1.1V72c0.7-1,1.7-1.5,3-1.5
				C312,70.5,313.7,72.1,313.7,74.5z M312.6,74.5c0-1.8-1.3-3.1-2.9-3.1c-1.7,0-2.9,1.2-2.9,3.1c0,1.8,1.3,3.1,2.9,3.1
				C311.4,77.5,312.6,76.3,312.6,74.5z"/>
		</g>
	</g>
</g>
</svg>
