<?xml version="1.0" encoding="utf-8"?>
<!-- Generator: Adobe Illustrator 25.0.0, SVG Export Plug-In . SVG Version: 6.00 Build 0)  -->
<svg version="1.1" id="Layer_1" xmlns="http://www.w3.org/2000/svg" xmlns:xlink="http://www.w3.org/1999/xlink" x="0px" y="0px"
	 viewBox="0 0 124 124" style="enable-background:new 0 0 124 124;" xml:space="preserve">
<style type="text/css">
	.st0{fill:#FFFFFF;}
	.st1{fill-rule:evenodd;clip-rule:evenodd;fill:#333033;}
</style>
<path class="st0" d="M106.3,36.6c-2.8,1.3-6,2.1-9,2.6c1.5-0.2,3.6-2.9,4.5-3.9c1.3-1.6,2.4-3.5,3-5.5c0.1-0.2,0.1-0.4,0-0.5
	c-0.2-0.1-0.3,0-0.5,0c-3.4,1.8-6.9,3.2-10.7,4.1c-0.3,0.1-0.5,0-0.7-0.2c-0.3-0.4-0.6-0.7-0.9-1c-1.6-1.3-3.3-2.4-5.2-3.2
	c-2.5-1-5.3-1.5-8-1.3c-2.6,0.2-5.2,0.9-7.5,2.1s-4.4,2.9-6.1,5c-1.7,2.1-3,4.6-3.6,7.3c-0.6,2.6-0.6,5.1-0.2,7.7
	c0.1,0.4,0,0.5-0.4,0.4c-14.8-2.1-27-7.3-36.9-18.6c-0.4-0.5-0.7-0.5-1,0c-4.3,6.5-2.2,16.9,3.2,22.1c0.7,0.7,1.5,1.4,2.3,2
	c-0.3,0.1-3.9-0.3-7.1-2c-0.4-0.3-0.6-0.1-0.7,0.4c0,0.7,0,1.3,0.1,2.1c0.8,6.6,5.4,12.7,11.6,15c0.7,0.3,1.6,0.6,2.4,0.7
	c-1.4,0.3-2.9,0.5-7,0.2c-0.5-0.1-0.7,0.2-0.5,0.6C30.4,81.1,37,83.6,42,85c0.7,0.1,1.3,0.1,2,0.3c0,0.1-0.1,0.1-0.1,0.1
	c-1.6,2.5-7.3,4.4-10,5.3c-4.8,1.7-10.1,2.4-15.2,1.9c-0.8-0.1-1-0.1-1.2,0s0,0.3,0.2,0.5c1,0.7,2.1,1.3,3.2,1.9
	c3.2,1.7,6.6,3.1,10.1,4.1c18.2,5,38.8,1.3,52.5-12.3C94.2,76.2,98,61.5,98,46.7c0-0.6,0.7-0.9,1.1-1.2c2.8-2.1,5-4.6,7.1-7.4
	c0.5-0.6,0.4-1.2,0.4-1.4v-0.1C106.6,36.4,106.7,36.4,106.3,36.6z"/>
<path class="st1" d="M43.9,101C51.4,101,44.2,101,43.9,101C44.9,101,43.8,101,43.9,101z M43.9,101C43.8,101,42.4,101,43.9,101
	C43.9,101,43.6,101,43.9,101z M46.9,101.1C46.9,100.9,48.5,101.1,46.9,101.1C46.9,101,47.1,101.1,46.9,101.1z M78.5,27.9
	c-0.1,0.1-0.2,0.1-0.4,0C78.2,27.9,78.4,27.9,78.5,27.9z"/>
</svg>
