<?xml version="1.0" encoding="utf-8"?>
<!-- Generator: Adobe Illustrator 25.0.0, SVG Export Plug-In . SVG Version: 6.00 Build 0)  -->
<svg version="1.1" id="Layer_1" xmlns="http://www.w3.org/2000/svg" xmlns:xlink="http://www.w3.org/1999/xlink" x="0px" y="0px"
	 viewBox="0 0 124 124" style="enable-background:new 0 0 124 124;" xml:space="preserve">
<style type="text/css">
	.st0{fill:#FFFFFF;}
</style>
<path class="st0" d="M87.2,33.6c-3.1,0-5.6,2.5-5.6,5.6s2.5,5.6,5.6,5.6s5.6-2.5,5.6-5.6C92.8,36.1,90.3,33.6,87.2,33.6z M62.2,40.8
	c-13,0-23.6,10.6-23.6,23.6S49.2,88,62.2,88s23.6-10.6,23.6-23.6S75.2,40.8,62.2,40.8z M62.2,79.6c-8.4,0-15.1-6.8-15.1-15.1
	c0-8.4,6.8-15.1,15.1-15.1c8.4,0,15.1,6.8,15.1,15.1C77.3,72.8,70.5,79.6,62.2,79.6z M109.9,44.8C109.9,28.9,97,16,81.1,16H43
	c-15.9,0-28.8,12.9-28.8,28.8v38.1c0,15.9,12.9,28.8,28.8,28.8h38c15.9,0,28.8-12.9,28.8-28.8L109.9,44.8L109.9,44.8z M100.8,82.8
	c0,10.9-8.9,19.8-19.8,19.8H43c-10.9,0-19.8-8.9-19.8-19.8v-38C23.2,33.8,32,25,43,25h38c10.9,0,19.8,8.9,19.8,19.8V82.8z"/>
</svg>
