<?xml version="1.0" encoding="utf-8"?>
<!-- Generator: Adobe Illustrator 25.0.0, SVG Export Plug-In . SVG Version: 6.00 Build 0)  -->
<svg version="1.1" id="Layer_1" xmlns="http://www.w3.org/2000/svg" xmlns:xlink="http://www.w3.org/1999/xlink" x="0px" y="0px"
	 viewBox="0 0 124 124" style="enable-background:new 0 0 124 124;" xml:space="preserve">
<style type="text/css">
	.st0{fill-rule:evenodd;clip-rule:evenodd;fill:#FFFFFF;}
</style>
<path class="st0" d="M50.1,62.4v44.4c0,0.6,0.5,1.2,1.2,1.2h16.5c0.6,0,1.2-0.5,1.2-1.2V61.6h11.9c0.6,0,1.1-0.5,1.2-1.1l1-13.5
	c0.1-0.7-0.5-1.3-1.2-1.3h-13v-9.6c0-2.3,1.8-4.1,4.1-4.1h9.2c0.6,0,1.2-0.5,1.2-1.2V17.3c0-0.6-0.5-1.2-1.2-1.2H66.6
	c-9.1,0-16.5,7.4-16.5,16.5v13.1h-8.2c-0.6,0-1.2,0.5-1.2,1.2v13.6c0,0.6,0.5,1.2,1.2,1.2h8.2V62.4z"/>
</svg>
